<svg width="175" height="58" viewBox="0 0 175 58" fill="none" xmlns="http://www.w3.org/2000/svg">
    <style type="text/css">
        :root {
        --s1-bg: yellow;
        --s2-bg: yellow;
        --s3-bg: yellow;
        --s4-bg: yellow;
        --s5-bg: yellow;
        --s1-st: #384e9a;
        --s2-st: #384e9a;
        --s3-st: #384e9a;
        --s4-st: #384e9a;
        --s5-st: #384e9a;
        }
        .star1 {
        fill: var(--s1-bg);
        stroke: var(--s1-st);
        }
        .star2 {
        fill: var(--s2-bg);
        stroke: var(--s2-st);
        }
        .star3 {
        fill: var(--s3-bg);
        stroke: var(--s3-st);
        }
        .star4 {
        fill: var(--s4-bg);
        stroke: var(--s4-st);
        }
        .star5 {
        fill: var(--s5-bg);
        stroke: var(--s5-st);
        }
    </style>
    <path
        class="star1 star-all"
        d="M82.9139 10.9282L86.8446 3.0106C87.3492 1.99419 88.807 1.99419 89.3115 3.0106L93.2422 10.9282L102.033 12.2057C103.16 12.3696 103.61 13.7481 102.793 14.5387L96.4338 20.6975L97.9346 29.3981C98.1274 30.5155 96.9478 31.3674 95.9387 30.8397L88.0781 26.7296L80.2175 30.8397C79.2083 31.3674 78.0288 30.5155 78.2215 29.3981L79.7223 20.6975L73.3629 14.5387C72.5464 13.7481 72.9959 12.3696 74.1237 12.2057L82.9139 10.9282Z"
        stroke="#384E9A" stroke-width="4" stroke-linecap="round" stroke-linejoin="round" />
    <path
        class="star2 star-all"
        d="M122.476 24.3808L125.819 17.6482C126.248 16.7839 127.487 16.7839 127.916 17.6482L131.259 24.3808L138.733 25.467C139.692 25.6064 140.074 26.7785 139.38 27.4509L133.973 32.6878L135.249 40.0861C135.413 41.0363 134.41 41.7607 133.552 41.312L126.868 37.8171L120.183 41.312C119.325 41.7607 118.322 41.0363 118.486 40.0861L119.762 32.6878L114.355 27.4509C113.661 26.7785 114.043 25.6064 115.002 25.467L122.476 24.3808Z"
        stroke="#384E9A" stroke-width="4" stroke-linecap="round" stroke-linejoin="round" />
    <path
        class="star3 star-all"
        d="M44.4763 24.3808L47.8187 17.6482C48.2477 16.7839 49.4873 16.7839 49.9163 17.6482L53.2587 24.3808L60.7333 25.467C61.6923 25.6064 62.0745 26.7785 61.3803 27.4509L55.9726 32.6878L57.2488 40.0861C57.4127 41.0363 56.4097 41.7607 55.5515 41.312L48.8675 37.8171L42.1834 41.312C41.3254 41.7607 40.3223 41.0363 40.4862 40.0861L41.7624 32.6878L36.3548 27.4509C35.6605 26.7785 36.0427 25.6064 37.0018 25.467L44.4763 24.3808Z"
        stroke="#384E9A" stroke-width="4" stroke-linecap="round" stroke-linejoin="round" />
    <path
        class="star4 star-all"
        d="M155.476 36.3808L158.819 29.6482C159.248 28.7839 160.487 28.7839 160.916 29.6482L164.259 36.3808L171.733 37.467C172.692 37.6064 173.074 38.7785 172.38 39.4509L166.973 44.6878L168.249 52.0861C168.413 53.0363 167.41 53.7607 166.552 53.312L159.868 49.8171L153.183 53.312C152.325 53.7607 151.322 53.0363 151.486 52.0861L152.762 44.6878L147.355 39.4509C146.661 38.7785 147.043 37.6064 148.002 37.467L155.476 36.3808Z"
        stroke="#384E9A" stroke-width="4" stroke-linecap="round" stroke-linejoin="round" />
    <path
        class="star5 star-all"
        d="M11.4763 38.3808L14.8187 31.6482C15.2477 30.7839 16.4873 30.7839 16.9163 31.6482L20.2587 38.3808L27.7333 39.467C28.6923 39.6064 29.0745 40.7785 28.3803 41.4509L22.9726 46.6878L24.2488 54.0861C24.4127 55.0363 23.4097 55.7607 22.5515 55.312L15.8675 51.8171L9.18345 55.312C8.32535 55.7607 7.32232 55.0363 7.4862 54.0861L8.7624 46.6878L3.35482 41.4509C2.66052 40.7785 3.04275 39.6064 4.00176 39.467L11.4763 38.3808Z"
        stroke="#384E9A" stroke-width="4" stroke-linecap="round" stroke-linejoin="round" />
</svg>